<svg xmlns="http://www.w3.org/2000/svg" width="1440" height="620" viewBox="0 0 1440 620" role="img" aria-labelledby="title desc">
  <title id="title">HouseNet Engineering Control Plane</title>
  <desc id="desc">HouseNet branded control plane with active Class A status, policy version 1.0.0 and an owner-to-merge governance flow.</desc>
  <defs>
    <pattern id="grid" width="32" height="32" patternUnits="userSpaceOnUse"><path d="M32 0H0V32" fill="none" stroke="#464F55" stroke-width="0.5" opacity=".45"/></pattern>
    <linearGradient id="wash" x1="0" y1="0" x2="1" y2="1"><stop stop-color="#1C2125"/><stop offset="1" stop-color="#2B3034"/></linearGradient>
  </defs>
  <rect width="1440" height="620" rx="20" fill="url(#wash)"/><rect width="1440" height="620" rx="20" fill="url(#grid)"/>
  <path d="M48 82H1392M48 466H1392" stroke="#464F55"/>
  <g font-family="Inter, Segoe UI, Arial, sans-serif">
    <image href="brand/housenet-footer-logo.svg" x="56" y="24" width="201" height="45" preserveAspectRatio="xMinYMid meet"/>
    <text x="1390" y="51" text-anchor="end" fill="#D1DCE2" font-size="12" letter-spacing="2">ENGINEERING CONTROL PLANE / 01</text>
    <rect x="56" y="120" width="266" height="30" rx="15" fill="#2B3034" stroke="#E4003A"/><circle cx="74" cy="135" r="4" fill="#78AD57"/><text x="89" y="139" fill="#FFFFFF" font-size="11" font-weight="700" letter-spacing="1.2">ACTIVE · CLASS A — CRITICAL</text>
    <text x="56" y="222" fill="#FFFFFF" font-size="58" font-weight="700" letter-spacing="-2">ENGINEERING</text>
    <text x="56" y="289" fill="#FFFFFF" font-size="58" font-weight="700" letter-spacing="-2">CONTROL PLANE</text>
    <text x="59" y="333" fill="#D1DCE2" font-size="18">Policy authority for HouseNet repositories and coding agents.</text>
    <text x="59" y="373" fill="#E4003A" font-size="12" font-weight="700" letter-spacing="2">POLICY VERSION · 1.0.0</text>
    <path d="M1100 158V215M920 293H1000M1200 293H1280V373H1172M1100 333V373H1024M907 180V237H858V270M1100 333V430H864V314" fill="none" stroke="#464F55" stroke-width="2"/>
    <path d="M920 293H1000M1100 158V215M1200 293H1280" fill="none" stroke="#E4003A" stroke-width="2" stroke-dasharray="4 6"/>
    <g fill="#2B3034" stroke="#464F55"><rect x="1000" y="101" width="200" height="66" rx="10"/><rect x="793" y="249" width="169" height="67" rx="10"/><rect x="999" y="220" width="203" height="114" rx="10" stroke="#E4003A"/><rect x="785" y="114" width="175" height="66" rx="10"/><rect x="1020" y="368" width="202" height="67" rx="10"/></g>
    <g fill="#FFFFFF" font-size="13" font-weight="700" letter-spacing="1"><text x="1018" y="130">OWNER</text><text x="811" y="278">AGENTS</text><text x="1017" y="248">POLICY AUTHORITY</text><text x="803" y="143">REPOSITORIES</text><text x="1038" y="396">POLICY GATE</text></g>
    <g fill="#D1DCE2" font-size="11"><text x="1018" y="151">Explicit approval</text><text x="811" y="299">Preflight + context</text><text x="1017" y="270">Rules · schemas · registry</text><text x="1017" y="311" fill="#E4003A" font-size="10" letter-spacing="1.4">SINGLE SOURCE OF TRUTH</text><text x="803" y="164">Classified A / B / C</text><text x="1038" y="417">Validate before merge</text></g>
    <g fill="#2B3034" stroke="#464F55"><rect x="56" y="494" width="38" height="38" rx="8"/><rect x="515" y="494" width="38" height="38" rx="8"/><rect x="974" y="494" width="38" height="38" rx="8"/></g>
    <g fill="#E4003A" font-size="21" font-weight="700" text-anchor="middle"><text x="75" y="520">A</text><text x="534" y="520">B</text><text x="993" y="520">C</text></g>
    <g fill="#FFFFFF" font-size="13" font-weight="700" letter-spacing="2"><text x="109" y="511">CRITICAL</text><text x="568" y="511">STANDARD</text><text x="1027" y="511">LIGHTWEIGHT</text></g>
    <g fill="#D1DCE2" font-size="12"><text x="109" y="535">Production · infrastructure · authority</text><text x="568" y="535">Maintained software · services · tools</text><text x="1027" y="535">Notes · prototypes · reference</text></g>
    <text x="56" y="586" fill="#979FA3" font-size="10" letter-spacing="2">HOUSE NET · SIMPLE / PRIVATE / SECURE / AUDITABLE / REPRODUCIBLE</text>
  </g>
</svg>
